<?xml version="1.0" encoding="utf-8"?>
<!-- Generator: Adobe Illustrator 23.1.0, SVG Export Plug-In . SVG Version: 6.00 Build 0)  -->
<svg version="1.1"
	 id="svg2" xmlns:cc="http://creativecommons.org/ns#" xmlns:dc="http://purl.org/dc/elements/1.1/" xmlns:rdf="http://www.w3.org/1999/02/22-rdf-syntax-ns#" xmlns:svg="http://www.w3.org/2000/svg"
	 xmlns="http://www.w3.org/2000/svg" xmlns:xlink="http://www.w3.org/1999/xlink" x="0px" y="0px" viewBox="0 0 400 400"
	 style="enable-background:new 0 0 400 400;" xml:space="preserve">
<style type="text/css">
	.st0{fill:#333333;}
	.st1{fill:none;stroke:#000000;stroke-width:3.562;}
	.st2{fill:url(#path3193_1_);}
	.st3{fill:url(#SVGID_1_);}
	.st4{fill:none;stroke:#000000;stroke-width:3;}
	.st5{fill:url(#path3223_1_);}
	.st6{fill:#FFFFFF;}
</style>
<image style="overflow:visible;" width="444" height="444" id="use31" xlink:href="648BE040.png"  transform="matrix(1 0 0 1 -19.2857 -18)">
</image>
<path d="M200,15C97.9,15,15,97.9,15,200s82.9,185,185,185s185-82.9,185-185S302.1,15,200,15z M200,194.8c2.9,0,5.2,2.3,5.2,5.2
	c0,2.9-2.3,5.2-5.2,5.2c-2.9,0-5.2-2.3-5.2-5.2C194.8,197.1,197.1,194.8,200,194.8z"/>
<path id="path3271" class="st0" d="M200,132.7c-37.2,0-67.3,30.2-67.3,67.3s30.2,67.3,67.3,67.3s67.3-30.2,67.3-67.3
	S237.2,132.7,200,132.7z M200,195.6c2.5,0,4.4,2,4.4,4.4s-2,4.4-4.4,4.4s-4.4-2-4.4-4.4S197.5,195.6,200,195.6z"/>
<path id="path3176" class="st1" d="M200,16.8c101.2,0,183.2,82.1,183.2,183.2c0,101.2-82.1,183.2-183.2,183.2S16.8,301.2,16.8,200
	S98.8,16.8,200,16.8z"/>
<g id="use3151" transform="rotate(180,200,200)">
	
		<radialGradient id="path3193_1_" cx="405.4292" cy="132.4696" r="92.5" gradientTransform="matrix(0.8696 -0.8696 -1.9615 -1.9615 288.7179 993.8317)" gradientUnits="userSpaceOnUse">
		<stop  offset="0" style="stop-color:#FFFFFF"/>
		<stop  offset="1" style="stop-color:#FFFFFF;stop-opacity:0"/>
	</radialGradient>
	<path id="path3193" class="st2" d="M293.6,200c0,51.7-41.9,93.6-93.6,93.6v87.8c100.1,0,181.4-81.3,181.4-181.4H293.6z"/>
</g>
<radialGradient id="SVGID_1_" cx="405.4292" cy="14.1919" r="92.5" gradientTransform="matrix(-0.8696 0.8696 1.9615 1.9615 343.2821 -361.8317)" gradientUnits="userSpaceOnUse">
	<stop  offset="0" style="stop-color:#FFFFFF"/>
	<stop  offset="1" style="stop-color:#FFFFFF;stop-opacity:0"/>
</radialGradient>
<path class="st3" d="M106.4,200c0-51.7,41.9-93.6,93.6-93.6V18.6C99.9,18.6,18.6,99.9,18.6,200H106.4z"/>
<path id="path3215" class="st4" d="M200,132.7c37.2,0,67.3,30.1,67.3,67.3s-30.1,67.3-67.3,67.3s-67.3-30.1-67.3-67.3
	S162.8,132.7,200,132.7z"/>
<radialGradient id="path3223_1_" cx="274.9034" cy="-25.8438" r="53.6875" gradientTransform="matrix(0 2.8729 1 0 225.8438 -589.7586)" gradientUnits="userSpaceOnUse">
	<stop  offset="0" style="stop-color:#F7F7F7"/>
	<stop  offset="1" style="stop-color:#E1E1E1"/>
</radialGradient>
<path id="path3223" class="st5" d="M238,162c-21-21-55-21-75.9,0s-21,55,0,75.9s55,21,75.9,0S258.9,183,238,162L238,162z
	 M203.7,196.3c2,2,2,5.3,0,7.3s-5.3,2-7.3,0c-2-2-2-5.3,0-7.3S201.6,194.3,203.7,196.3z"/>
<g>
	<path class="st6" d="M223.5,116.4c0.9,0.1,2.2,0.4,3.4,0.8c1.8,0.6,2.9,1.3,3.5,2.4c0.5,0.8,0.5,1.8,0.2,2.9
		c-0.6,1.8-2.1,2.5-3.6,2.6l0,0.1c0.9,0.7,1.2,1.8,1.1,3.3c-0.2,2-0.3,3.4-0.2,4l-1.8-0.6c-0.1-0.4,0-1.7,0.2-3.5
		c0.2-2-0.3-2.9-1.8-3.5l-1.6-0.5l-1.9,5.8l-1.7-0.6L223.5,116.4z M223.2,123l1.8,0.6c1.8,0.6,3.3,0,3.8-1.5
		c0.6-1.7-0.4-2.9-2.2-3.5c-0.8-0.3-1.4-0.4-1.7-0.4L223.2,123z"/>
	<path class="st6" d="M230,131c0.5,0.8,1.4,1.7,2.5,2.3c1.7,0.8,3.1,0.4,3.7-0.8c0.6-1.2,0.2-2.2-1.1-3.7c-1.7-1.7-2.4-3.4-1.5-5.2
		c1-2,3.3-2.6,5.7-1.4c1.3,0.6,2.1,1.4,2.5,2l-1.1,1.1c-0.3-0.4-0.9-1.2-2.1-1.8c-1.7-0.8-2.9-0.2-3.3,0.7c-0.6,1.2-0.1,2.1,1.3,3.7
		c1.7,1.9,2.3,3.4,1.4,5.3c-1,1.9-3.2,2.9-6.2,1.4c-1.2-0.6-2.4-1.6-2.8-2.4L230,131z"/>
	<path class="st6" d="M242.6,138c0.3,0.9,1,1.9,2,2.7c1.5,1.1,2.9,1,3.8-0.1c0.8-1,0.7-2.1-0.4-3.8c-1.3-2-1.7-3.8-0.5-5.4
		c1.3-1.7,3.7-1.9,5.9-0.3c1.1,0.9,1.8,1.8,2,2.4l-1.3,0.9c-0.2-0.5-0.7-1.4-1.7-2.1c-1.5-1.2-2.8-0.7-3.4,0.1
		c-0.8,1-0.5,2.1,0.6,3.8c1.3,2.2,1.6,3.8,0.3,5.4c-1.3,1.7-3.7,2.2-6.3,0.2c-1.1-0.8-2-2-2.3-2.9L242.6,138z"/>
	<path class="st6" d="M254.5,150.8c-0.5-0.2-1.5-0.7-2.5-1.6c-2.1-2.1-2.1-5,0.1-7.2c2.2-2.2,5.3-2.3,7.6,0c0.8,0.8,1.3,1.6,1.4,2.2
		l-1.3,0.7c-0.1-0.5-0.5-1.1-1.2-1.8c-1.6-1.6-3.7-1.3-5.2,0.2c-1.6,1.6-1.6,3.7-0.2,5.1c0.7,0.7,1.4,1,1.9,1.2L254.5,150.8z"/>
	<path class="st6" d="M267,143.4l1.1,1.4l-5,3.8l0,0c0.6-0.1,1.2,0,1.8,0.3c0.6,0.2,1.1,0.6,1.5,1.2c0.8,1.1,1.5,3.3-1.3,5.4
		l-4.7,3.6l-1.1-1.4l4.6-3.5c1.3-1,2-2.3,1-3.7c-0.7-0.9-1.9-1.2-2.9-0.8c-0.3,0.1-0.5,0.2-0.8,0.4l-4.8,3.7l-1.1-1.4L267,143.4z"/>
	<path class="st6" d="M270.7,166.7c-3.3,1.8-5.9,0.3-7.1-1.8c-1.3-2.4-0.6-5.2,2.2-6.7c2.9-1.6,5.7-0.7,7.1,1.8
		C274.3,162.5,273.4,165.2,270.7,166.7z M266.8,159.7c-1.9,1.1-2.8,3-1.9,4.5c0.8,1.5,2.9,1.9,4.9,0.8c1.5-0.8,3-2.6,1.9-4.5
		C270.7,158.7,268.5,158.8,266.8,159.7z"/>
	<path class="st6" d="M274.9,177.5c-3.5,1.3-5.9-0.6-6.7-2.8c-0.9-2.5,0.2-5.2,3.2-6.3c3.2-1.2,5.8,0.2,6.7,2.8
		C279.1,173.9,277.8,176.5,274.9,177.5z M272,170.1c-2.1,0.8-3.2,2.5-2.6,4.2c0.6,1.6,2.6,2.3,4.7,1.5c1.6-0.6,3.3-2.1,2.6-4.2
		S273.8,169.5,272,170.1z"/>
	<path class="st6" d="M284.8,177.7l0.4,1.8l-14.3,3.6l-0.4-1.8L284.8,177.7z"/>
	<path class="st6" d="M159.6,260.9l-0.7,0.9l-2,0.2c-4.7,0.5-7,1-8.3,2.6c-0.8,1.1-1.1,2.5,0.5,3.7c1,0.7,2.2,0.9,3,0.8l-0.3,1.4
		c-1.2,0.1-2.6-0.3-3.9-1.2c-2.3-1.8-2.1-4.1-0.9-5.6c1.5-2,4.2-2.5,8.1-3l1.5-0.1l0,0l-4.8-3.6l0.9-1.2L159.6,260.9z"/>
	<path class="st6" d="M140.3,253.2c3.2-3.2,6.2-3.8,8.3-1.7c1.9,1.9,1.4,4.9-1.7,8c-3.2,3.2-6.3,3.6-8.3,1.6
		C136.7,259.2,137.3,256.2,140.3,253.2z M145.7,258.2c2.5-2.5,3.1-4.6,2-5.8c-1.3-1.3-3.5-0.4-5.9,2c-2.3,2.3-3.3,4.5-2,5.8
		C140.9,261.4,143.1,260.8,145.7,258.2z"/>
	<path class="st6" d="M144.4,247.4l-0.9,0.7l-2-0.3c-4.7-0.8-7-1-8.7,0.2c-1.1,0.8-1.7,2.1-0.5,3.7c0.7,1,1.8,1.4,2.6,1.6l-0.7,1.2
		c-1.2-0.3-2.5-1-3.4-2.2c-1.7-2.3-0.9-4.5,0.6-5.7c2-1.5,4.7-1.3,8.6-0.7l1.4,0.3l0,0l-3.6-4.8l1.2-0.9L144.4,247.4z"/>
	<path class="st6" d="M138.4,239.2l-1,0.5l-1.9-0.6c-4.5-1.4-6.8-1.9-8.6-1c-1.2,0.7-2,1.9-1,3.6c0.6,1.1,1.6,1.7,2.4,1.9l-0.8,1.1
		c-1.1-0.4-2.3-1.3-3.1-2.7c-1.4-2.5-0.3-4.6,1.4-5.5c2.2-1.2,4.8-0.6,8.6,0.5l1.4,0.5l0,0l-2.9-5.3l1.3-0.7L138.4,239.2z"/>
</g>
</svg>
