<?xml version="1.0" encoding="utf-8"?>
<!-- Generator: Adobe Illustrator 23.1.0, SVG Export Plug-In . SVG Version: 6.00 Build 0)  -->
<svg version="1.1"
	 id="svg2" xmlns:cc="http://creativecommons.org/ns#" xmlns:dc="http://purl.org/dc/elements/1.1/" xmlns:rdf="http://www.w3.org/1999/02/22-rdf-syntax-ns#" xmlns:svg="http://www.w3.org/2000/svg"
	 xmlns="http://www.w3.org/2000/svg" xmlns:xlink="http://www.w3.org/1999/xlink" x="0px" y="0px" viewBox="0 0 400 400"
	 style="enable-background:new 0 0 400 400;" xml:space="preserve">
<style type="text/css">
	.st0{filter:url(#filter3315);}
	.st1{opacity:0.5;}
	.st2{fill:#333333;}
	.st3{display:none;fill:none;stroke:#000000;stroke-width:3.562;}
	.st4{display:none;fill:url(#path3193_1_);}
	.st5{fill:url(#SVGID_1_);}
	.st6{fill:none;stroke:#000000;stroke-width:3;}
	.st7{fill:url(#path3223_1_);}
	.st8{fill:url(#SVGID_2_);}
	.st9{fill:#BCBCBC;}
</style>
<filter  id="filter3315">
	<feGaussianBlur  id="feGaussianBlur3317" stdDeviation="3.7"></feGaussianBlur>
</filter>
<g id="use31" transform="translate(2.71429,4)" class="st0">
	<g id="path3191_1_">
		<g class="st1">
			<path d="M200.7,16c-102.1,0-185,82.9-185,185s82.9,185,185,185s185-82.9,185-185S302.8,16,200.7,16z M200.7,195.8
				c2.9,0,5.2,2.3,5.2,5.2c0,2.9-2.3,5.2-5.2,5.2c-2.9,0-5.2-2.3-5.2-5.2C195.5,198.1,197.8,195.8,200.7,195.8z"/>
		</g>
	</g>
</g>
<path d="M200,15C97.9,15,15,97.9,15,200s82.9,185,185,185s185-82.9,185-185S302.1,15,200,15z M200,194.8c2.9,0,5.2,2.3,5.2,5.2
	c0,2.9-2.3,5.2-5.2,5.2c-2.9,0-5.2-2.3-5.2-5.2C194.8,197.1,197.1,194.8,200,194.8z"/>
<path id="path3271" class="st2" d="M200,132.7c-37.2,0-67.3,30.2-67.3,67.3s30.2,67.3,67.3,67.3s67.3-30.2,67.3-67.3
	S237.2,132.7,200,132.7z M200,195.6c2.5,0,4.4,2,4.4,4.4s-2,4.4-4.4,4.4s-4.4-2-4.4-4.4S197.5,195.6,200,195.6z"/>
<path id="path3176" class="st3" d="M200,16.8c101.2,0,183.2,82.1,183.2,183.2c0,101.2-82.1,183.2-183.2,183.2S16.8,301.2,16.8,200
	S98.8,16.8,200,16.8z"/>
<g id="use3151" transform="rotate(180,200,200)">
	
		<radialGradient id="path3193_1_" cx="405.4292" cy="132.4696" r="92.5" gradientTransform="matrix(0.8696 -0.8696 -1.9615 -1.9615 288.7179 993.8317)" gradientUnits="userSpaceOnUse">
		<stop  offset="0" style="stop-color:#FFFFFF"/>
		<stop  offset="1" style="stop-color:#FFFFFF;stop-opacity:0"/>
	</radialGradient>
	<path id="path3193" class="st4" d="M293.6,200c0,51.7-41.9,93.6-93.6,93.6v87.8c100.1,0,181.4-81.3,181.4-181.4H293.6z"/>
</g>
<radialGradient id="SVGID_1_" cx="405.4292" cy="14.1919" r="92.5" gradientTransform="matrix(-0.8696 0.8696 1.9615 1.9615 343.2821 -361.8317)" gradientUnits="userSpaceOnUse">
	<stop  offset="0" style="stop-color:#FFFFFF"/>
	<stop  offset="1" style="stop-color:#FFFFFF;stop-opacity:0"/>
</radialGradient>
<path class="st5" d="M106.4,200c0-51.7,41.9-93.6,93.6-93.6V18.6C99.9,18.6,18.6,99.9,18.6,200H106.4z"/>
<path id="path3215" class="st6" d="M200,132.7c37.2,0,67.3,30.1,67.3,67.3s-30.1,67.3-67.3,67.3s-67.3-30.1-67.3-67.3
	S162.8,132.7,200,132.7z"/>
<radialGradient id="path3223_1_" cx="274.9034" cy="-25.8438" r="53.6875" gradientTransform="matrix(0 2.8729 1 0 225.8438 -589.7586)" gradientUnits="userSpaceOnUse">
	<stop  offset="0" style="stop-color:#F7F7F7"/>
	<stop  offset="1" style="stop-color:#E1E1E1"/>
</radialGradient>
<path id="path3223" class="st7" d="M238,162c-21-21-55-21-75.9,0s-21,55,0,75.9s55,21,75.9,0S258.9,183,238,162L238,162z
	 M203.7,196.3c2,2,2,5.3,0,7.3s-5.3,2-7.3,0c-2-2-2-5.3,0-7.3S201.6,194.3,203.7,196.3z"/>
<radialGradient id="SVGID_2_" cx="923.6614" cy="-177.7881" r="92.5" gradientTransform="matrix(0.8696 -0.8696 -1.9615 -1.9615 -770.4976 835.9147)" gradientUnits="userSpaceOnUse">
	<stop  offset="0" style="stop-color:#FFFFFF"/>
	<stop  offset="1" style="stop-color:#FFFFFF;stop-opacity:0"/>
</radialGradient>
<path class="st8" d="M293.6,200c0,51.7-41.9,93.6-93.6,93.6v87.8c100.1,0,181.4-81.3,181.4-181.4H293.6z"/>
<g>
	<path class="st9" d="M230.1,118.5c0.9,0.2,2.2,0.6,3.3,1.1c1.7,0.8,2.8,1.6,3.3,2.7c0.4,0.8,0.3,1.8-0.1,2.9
		c-0.8,1.7-2.3,2.3-3.8,2.3l0,0.1c0.8,0.8,1,1.9,0.8,3.4c-0.4,2-0.6,3.4-0.6,4l-1.7-0.8c-0.1-0.4,0.2-1.7,0.5-3.5
		c0.4-2,0-2.9-1.5-3.6l-1.5-0.6l-2.4,5.6l-1.6-0.8L230.1,118.5z M229.2,125.1l1.7,0.8c1.7,0.8,3.3,0.3,3.9-1.2
		c0.8-1.6-0.1-2.9-1.9-3.7c-0.8-0.4-1.4-0.5-1.7-0.6L229.2,125.1z"/>
	<path class="st9" d="M235.3,133.7c0.4,0.8,1.2,1.8,2.3,2.5c1.6,0.9,3.1,0.7,3.8-0.5c0.7-1.1,0.4-2.2-0.8-3.8
		c-1.5-1.8-2.1-3.6-1-5.3c1.2-1.9,3.5-2.3,5.8-0.9c1.2,0.7,2,1.6,2.3,2.2l-1.2,1c-0.3-0.4-0.8-1.3-1.9-2c-1.6-0.9-2.9-0.5-3.3,0.4
		c-0.7,1.1-0.3,2.1,1,3.8c1.5,2,2,3.6,0.9,5.4c-1.2,1.8-3.4,2.6-6.3,0.8c-1.1-0.7-2.2-1.8-2.6-2.6L235.3,133.7z"/>
	<path class="st9" d="M247.2,141.8c0.2,0.9,0.8,2,1.7,2.9c1.4,1.2,2.8,1.3,3.8,0.2c0.9-0.9,0.9-2-0.1-3.8c-1.1-2.1-1.4-3.9,0-5.4
		c1.4-1.6,3.9-1.6,5.9,0.2c1,1,1.6,2,1.8,2.6l-1.4,0.8c-0.2-0.5-0.6-1.5-1.5-2.2c-1.4-1.3-2.7-0.9-3.4-0.2c-0.9,0.9-0.7,2,0.3,3.8
		c1.1,2.3,1.3,3.9-0.2,5.4c-1.4,1.6-3.9,1.9-6.3-0.4c-1-0.9-1.8-2.2-2-3.1L247.2,141.8z"/>
	<path class="st9" d="M257.9,155.6c-0.5-0.2-1.4-0.8-2.3-1.8c-1.9-2.3-1.6-5.2,0.7-7.2c2.4-2,5.5-1.8,7.6,0.7
		c0.7,0.9,1.2,1.7,1.2,2.3l-1.4,0.6c-0.1-0.5-0.4-1.1-1-1.9c-1.5-1.7-3.6-1.6-5.2-0.3c-1.7,1.5-1.9,3.5-0.7,5.1
		c0.6,0.8,1.3,1.1,1.8,1.4L257.9,155.6z"/>
	<path class="st9" d="M271,149.3l1,1.5l-5.3,3.3l0,0c0.6,0,1.2,0.1,1.8,0.5c0.6,0.3,1,0.7,1.4,1.3c0.7,1.2,1.2,3.4-1.8,5.3l-5,3.2
		l-1-1.5l4.9-3.1c1.4-0.9,2.2-2.1,1.3-3.6c-0.6-1-1.8-1.4-2.8-1.1c-0.3,0.1-0.5,0.2-0.8,0.3l-5.1,3.3l-1-1.5L271,149.3z"/>
	<path class="st9" d="M272.6,172.9c-3.4,1.5-5.9-0.2-6.9-2.4c-1.1-2.5-0.1-5.2,2.8-6.5c3-1.3,5.7-0.2,6.9,2.4
		S275.4,171.6,272.6,172.9z M269.3,165.5c-2,0.9-3.1,2.7-2.3,4.3c0.7,1.6,2.7,2.2,4.8,1.2c1.6-0.7,3.2-2.3,2.3-4.3
		C273.3,164.9,271.1,164.8,269.3,165.5z"/>
	<path class="st9" d="M275.8,184c-3.6,1-5.8-1.1-6.4-3.4c-0.7-2.6,0.7-5.2,3.8-6c3.3-0.9,5.8,0.7,6.4,3.4
		C280.3,180.8,278.8,183.3,275.8,184z M273.6,176.4c-2.2,0.6-3.4,2.2-3,3.9c0.5,1.6,2.4,2.5,4.5,1.9c1.6-0.5,3.5-1.8,3-3.9
		C277.6,176.1,275.4,175.8,273.6,176.4z"/>
	<path class="st9" d="M285.6,185.1l0.2,1.8l-14.6,2.3l-0.2-1.8L285.6,185.1z"/>
	<path class="st9" d="M153.5,256.7l-0.8,0.8l-2,0c-4.7,0.1-7.1,0.4-8.5,1.8c-0.9,1-1.3,2.4,0.2,3.7c0.9,0.8,2.1,1.1,2.9,1.1
		l-0.4,1.4c-1.2,0-2.6-0.5-3.8-1.5c-2.1-2-1.7-4.3-0.4-5.7c1.7-1.9,4.4-2.1,8.3-2.3l1.5,0l0,0l-4.5-4l1-1.1L153.5,256.7z"/>
	<path class="st9" d="M135,247.3c3.5-2.9,6.5-3.2,8.4-0.9c1.7,2.1,1,5-2.4,7.8c-3.5,2.9-6.6,3-8.4,0.8
		C130.7,253,131.7,250,135,247.3z M139.8,252.8c2.7-2.3,3.5-4.3,2.5-5.6c-1.2-1.4-3.5-0.7-6.1,1.5c-2.5,2.1-3.7,4.2-2.5,5.6
		C134.7,255.5,137,255.1,139.8,252.8z"/>
	<path class="st9" d="M139.6,241.9l-1,0.6l-2-0.5c-4.6-1.2-6.9-1.6-8.7-0.6c-1.2,0.7-1.9,1.9-0.8,3.6c0.6,1.1,1.7,1.6,2.4,1.8
		l-0.8,1.1c-1.2-0.4-2.4-1.2-3.2-2.5c-1.5-2.4-0.5-4.6,1.1-5.6c2.1-1.3,4.8-0.9,8.6,0.1l1.4,0.4l0,0l-3.2-5.1l1.3-0.8L139.6,241.9z"
		/>
	<path class="st9" d="M134.2,233.2l-1,0.4l-1.8-0.8c-4.4-1.8-6.6-2.5-8.5-1.8c-1.3,0.6-2.2,1.7-1.3,3.5c0.5,1.1,1.4,1.8,2.2,2.1
		l-0.9,1c-1.1-0.5-2.2-1.5-2.8-3c-1.2-2.6,0.1-4.6,1.9-5.4c2.3-1,4.8-0.2,8.5,1.3l1.3,0.6l0,0l-2.4-5.3l1.4-0.6L134.2,233.2z"/>
</g>
</svg>
