<?xml version="1.0" encoding="utf-8"?>
<!-- Generator: Adobe Illustrator 23.1.0, SVG Export Plug-In . SVG Version: 6.00 Build 0)  -->
<svg version="1.1" id="Layer_1" xmlns="http://www.w3.org/2000/svg" xmlns:xlink="http://www.w3.org/1999/xlink" x="0px" y="0px"
	 viewBox="0 0 167 167" style="enable-background:new 0 0 167 167;" xml:space="preserve">
<style type="text/css">
	.st0{fill:#1A1A1A;}
	.st1{fill:#FFFFFF;}
</style>
<g>
	<g>
		<path class="st0" d="M-0.06,83.36c0-46.05,37.33-83.39,83.39-83.39c46.05,0,83.39,37.33,83.39,83.39s-37.33,83.38-83.39,83.38
			C37.27,166.74-0.06,129.41-0.06,83.36z"/>
		<path class="st1" d="M6.19,83.36c0-42.6,34.54-77.13,77.13-77.13c42.6,0,77.13,34.53,77.13,77.13c0,42.6-34.53,77.13-77.13,77.13
			C40.73,160.49,6.19,125.96,6.19,83.36z"/>
		<path class="st0" d="M10.89,83.36c0-40.01,32.44-72.44,72.44-72.44c40.01,0,72.44,32.43,72.44,72.44
			c0,40.01-32.43,72.44-72.44,72.44C43.32,155.8,10.89,123.36,10.89,83.36z"/>
	</g>
	<g>
		<polygon class="st1" points="59.44,62.74 59.44,62.75 91.34,44.33 91.34,83.36 91.34,122.39 59.44,103.97 59.44,103.98 
			40.05,103.98 40.05,91.69 40.05,75.03 40.05,62.74 		"/>
		<path class="st1" d="M112.98,83.36c0,7.81-3.02,14.92-7.95,20.22l3.62,3.55c5.83-6.22,9.41-14.58,9.41-23.78
			c0-9.19-3.58-17.55-9.41-23.77l-3.62,3.55C109.97,68.44,112.98,75.55,112.98,83.36z"/>
		<path class="st1" d="M103.93,83.36c0,5.77-2.23,11.02-5.87,14.93l2.67,2.63c4.31-4.59,6.94-10.77,6.94-17.56
			c0-6.79-2.64-12.96-6.94-17.56l-2.67,2.63C101.7,72.34,103.93,77.59,103.93,83.36z"/>
		<path class="st1" d="M123.5,83.36c0,10.56-4.08,20.15-10.74,27.32l4.89,4.8c7.88-8.4,12.71-19.7,12.71-32.13
			c0-12.42-4.83-23.72-12.71-32.12l-4.89,4.8C119.42,63.2,123.5,72.81,123.5,83.36z"/>
	</g>
</g>
</svg>
