<?xml version="1.0" encoding="utf-8"?>
<!-- Generator: Adobe Illustrator 23.1.0, SVG Export Plug-In . SVG Version: 6.00 Build 0)  -->
<svg version="1.1" id="Layer_1" xmlns="http://www.w3.org/2000/svg" xmlns:xlink="http://www.w3.org/1999/xlink" x="0px" y="0px"
	 viewBox="0 0 167 167" style="enable-background:new 0 0 167 167;" xml:space="preserve">
<style type="text/css">
	.st0{fill:#1A1A1A;}
	.st1{fill:#FFFFFF;}
</style>
<g>
	<g>
		<path class="st0" d="M-0.06,83.36c0-46.05,37.33-83.39,83.39-83.39c46.06,0,83.39,37.33,83.39,83.39
			c0,46.05-37.33,83.38-83.39,83.38C37.27,166.75-0.06,129.41-0.06,83.36z"/>
		<path class="st1" d="M6.2,83.36c0-42.6,34.53-77.13,77.13-77.13c42.6,0,77.13,34.53,77.13,77.13c0,42.6-34.53,77.13-77.13,77.13
			C40.73,160.49,6.2,125.96,6.2,83.36z"/>
		<path class="st0" d="M10.89,83.36c0-40.01,32.43-72.44,72.44-72.44c40.01,0,72.44,32.43,72.44,72.44c0,40-32.43,72.44-72.44,72.44
			C43.32,155.8,10.89,123.36,10.89,83.36z"/>
	</g>
	<g>
		<rect x="53.29" y="44.34" class="st1" width="24.03" height="78.05"/>
		<rect x="89.34" y="44.34" class="st1" width="24.03" height="78.05"/>
	</g>
</g>
</svg>
