<?xml version="1.0" encoding="utf-8"?>
<!-- Generator: Adobe Illustrator 23.1.0, SVG Export Plug-In . SVG Version: 6.00 Build 0)  -->
<svg version="1.1" id="Layer_1" xmlns="http://www.w3.org/2000/svg" xmlns:xlink="http://www.w3.org/1999/xlink" x="0px" y="0px"
	 viewBox="0 0 167 167" style="enable-background:new 0 0 167 167;" xml:space="preserve">
<style type="text/css">
	.st0{fill:#1A1A1A;}
	.st1{fill:#FFFFFF;}
</style>
<g>
	<g>
		<path class="st0" d="M-0.06,83.36c0-46.05,37.33-83.38,83.39-83.38c46.05,0,83.39,37.33,83.39,83.38
			c0,46.06-37.34,83.39-83.39,83.39C37.27,166.74-0.06,129.41-0.06,83.36z"/>
		<path class="st1" d="M6.19,83.36c0-42.6,34.53-77.13,77.13-77.13c42.6,0,77.13,34.53,77.13,77.13c0,42.6-34.53,77.13-77.13,77.13
			C40.73,160.49,6.19,125.96,6.19,83.36z"/>
		<path class="st0" d="M10.89,83.36c0-40,32.43-72.44,72.44-72.44s72.44,32.43,72.44,72.44c0,40.01-32.43,72.44-72.44,72.44
			S10.89,123.36,10.89,83.36z"/>
	</g>
	<polygon class="st1" points="57.04,83.36 57.04,44.33 90.84,63.85 124.63,83.36 90.84,102.87 57.04,122.38 	"/>
</g>
</svg>
